<?xml version="1.0" encoding="utf-8"?>
<!-- Generator: Adobe Illustrator 15.0.0, SVG Export Plug-In . SVG Version: 6.00 Build 0)  -->
<!DOCTYPE svg PUBLIC "-//W3C//DTD SVG 1.1 Basic//EN" "http://www.w3.org/Graphics/SVG/1.1/DTD/svg11-basic.dtd">
<svg version="1.1" baseProfile="basic" id="Layer_1"
	 xmlns="http://www.w3.org/2000/svg" xmlns:xlink="http://www.w3.org/1999/xlink" x="0px" y="0px" width="796.175px"
	 height="115.092px" viewBox="0 0 796.175 115.092" xml:space="preserve">
<g>
	<ellipse fill="#8DC63F" stroke="none" cx="190.633" cy="51.775" rx="169.339" ry="26.233"/>
	<ellipse fill="#FBB040" stroke="none" cx="436.554" cy="53.466" rx="325.589" ry="26.233"/>
	<ellipse fill="#FFF200" stroke="none" cx="404.936" cy="67.109" rx="358.731" ry="26.233"/>
	<path fill="000000" stroke="none" d="M381.684,89.727c-30.265,0.337-60.535,0.226-90.804-0.126c-30.268-0.453-60.534-1.265-90.784-2.591
		c-15.125-0.66-30.246-1.464-45.354-2.518c-15.107-1.039-30.206-2.261-45.281-3.792c-15.072-1.543-30.128-3.354-45.102-5.875
		c-7.483-1.277-14.95-2.719-22.343-4.628c-3.694-0.965-7.372-2.039-10.989-3.417c-1.808-0.694-3.601-1.464-5.351-2.417
		c-1.73-0.984-3.499-2.042-4.917-3.929c-0.687-0.929-1.244-2.275-1.081-3.678c0.151-1.395,0.864-2.505,1.602-3.339
		c1.524-1.666,3.285-2.68,5.037-3.604c3.531-1.79,7.187-3.011,10.856-4.114c7.353-2.158,14.81-3.69,22.283-5.049
		c14.957-2.668,30.011-4.522,45.081-6.104c15.072-1.565,30.17-2.801,45.278-3.849c15.107-1.061,30.228-1.875,45.354-2.531
		c30.25-1.325,60.517-2.125,90.785-2.574c30.269-0.344,60.539-0.449,90.804-0.11c-30.265,0.341-60.526,0.739-90.775,1.581
		c-30.25,0.746-60.493,1.805-90.702,3.408c-30.202,1.669-60.4,3.576-90.457,6.791c-15.021,1.623-30.022,3.517-44.855,6.209
		c-7.406,1.368-14.791,2.914-21.957,5.041c-3.566,1.08-7.114,2.292-10.332,3.94c-1.584,0.824-3.132,1.792-4.16,2.941
		c-0.507,0.571-0.817,1.167-0.862,1.672c-0.056,0.499,0.122,1.037,0.539,1.626c0.85,1.176,2.369,2.204,3.914,3.06
		c1.571,0.862,3.258,1.598,4.979,2.264c3.451,1.328,7.044,2.392,10.666,3.349c7.256,1.897,14.658,3.352,22.084,4.642
		c14.867,2.55,29.872,4.4,44.899,5.985c30.066,3.146,60.264,5.061,90.466,6.726c30.209,1.604,60.451,2.668,90.701,3.423
		C321.158,88.986,351.419,89.388,381.684,89.727z"/>
	<path fill="000000" stroke="none" d="M414.516,89.727c28.994-0.339,57.985-0.742,86.962-1.59c28.979-0.757,57.949-1.823,86.885-3.431
		c28.929-1.668,57.852-3.589,86.638-6.744c14.387-1.589,28.75-3.445,42.968-6.003c7.102-1.294,14.177-2.754,21.099-4.658
		c3.455-0.959,6.878-2.029,10.152-3.358c1.632-0.668,3.23-1.403,4.705-2.264c1.453-0.853,2.857-1.877,3.623-3.019
		c0.372-0.57,0.534-1.096,0.483-1.594c-0.04-0.502-0.318-1.074-0.776-1.632c-0.928-1.124-2.375-2.088-3.864-2.912
		c-3.031-1.646-6.406-2.863-9.801-3.946c-6.827-2.135-13.884-3.686-20.964-5.059c-14.183-2.703-28.542-4.602-42.922-6.23
		c-28.776-3.223-57.701-5.136-86.629-6.809c-28.936-1.607-57.906-2.667-86.885-3.416c-28.978-0.844-57.969-1.242-86.963-1.583
		c28.995-0.339,57.994-0.233,86.993,0.112c28.997,0.451,57.992,1.252,86.972,2.582c14.49,0.658,28.975,1.475,43.445,2.539
		c14.471,1.051,28.932,2.292,43.366,3.861c14.431,1.588,28.846,3.447,43.158,6.127c7.151,1.364,14.285,2.904,21.307,5.075
		c3.504,1.11,6.994,2.339,10.349,4.142c1.662,0.932,3.335,1.957,4.748,3.624c0.684,0.833,1.32,1.923,1.447,3.241
		c0.143,1.32-0.337,2.607-0.967,3.533c-1.302,1.867-2.979,2.951-4.619,3.937c-1.66,0.962-3.368,1.735-5.091,2.436
		c-3.448,1.387-6.961,2.468-10.491,3.438c-7.065,1.918-14.208,3.368-21.37,4.649c-14.33,2.532-28.747,4.348-43.181,5.897
		c-14.436,1.535-28.897,2.762-43.369,3.803c-14.47,1.057-28.956,1.863-43.445,2.525c-28.979,1.33-57.974,2.144-86.971,2.599
		C472.51,89.953,443.51,90.064,414.516,89.727z"/>
	<path fill="000000" stroke="none" d="M131.887,33.017c0.621,3.93,0.945,7.859,1.166,11.789c0.138,1.965,0.169,3.93,0.25,5.895l0.083,5.894
		c0.009,3.93-0.111,7.859-0.329,11.789c-0.22,3.93-0.546,7.859-1.17,11.789c-0.625-3.93-0.951-7.859-1.17-11.789
		c-0.217-3.93-0.337-7.859-0.329-11.789l0.083-5.894c0.081-1.965,0.112-3.93,0.25-5.895
		C130.941,40.876,131.266,36.947,131.887,33.017z"/>
	<path fill="000000" stroke="none" d="M131.887,33.017c5.681-0.609,11.411-0.746,17.158-0.222c2.877,0.253,5.749,0.732,8.613,1.577
		c1.43,0.437,2.847,1.01,4.221,1.862c0.682,0.433,1.357,0.943,1.956,1.623c0.594,0.669,1.116,1.546,1.316,2.559
		c0.203,1.012,0.034,2.055-0.307,2.907c-0.341,0.863-0.827,1.583-1.353,2.213c-1.063,1.255-2.283,2.212-3.556,3.029
		c-2.566,1.591-5.286,2.749-8.092,3.561c-5.583,1.641-11.493,2.205-17.149,1.279c5.696-0.327,11.217-1.535,16.397-3.496
		c2.563-1.021,5.089-2.169,7.27-3.709c1.083-0.761,2.114-1.589,2.865-2.526c0.768-0.932,1.161-1.94,0.98-2.687
		c-0.115-0.771-0.877-1.626-1.91-2.288c-1.026-0.676-2.263-1.18-3.524-1.636c-2.543-0.913-5.289-1.444-8.035-1.956
		C143.213,34.166,137.563,33.648,131.887,33.017z"/>
	<path fill="#2B3990" stroke="none" d="M289.934,48.518c-1.656,0.066-3.324,0.05-4.939,0.085c-1.621,0.051-3.129,0.283-4.644,0.76
		c-1.537,0.454-3.063,0.918-4.528,1.53c-1.463,0.614-2.886,1.301-4.235,2.094c-2.685,1.595-5.067,3.661-6.757,6.149
		c-1.673,2.488-2.568,5.436-2.316,8.339c0.266,2.9,1.66,5.667,3.768,7.847c2.123,2.174,4.829,3.867,7.774,5.046
		c0.732,0.304,1.482,0.589,2.239,0.834c0.738,0.229,1.521,0.426,2.302,0.589c1.568,0.319,3.166,0.56,4.771,0.656
		c1.604,0.087,3.222,0.055,4.807-0.22c1.569-0.294,3.146-0.827,4.398-1.916c-1.083,1.254-2.637,2.08-4.242,2.56
		c-1.613,0.493-3.297,0.708-4.974,0.77c-1.68,0.062-3.362-0.012-5.033-0.235c-1.675-0.21-3.362-0.604-4.968-1.105
		c-3.215-1.056-6.389-2.632-8.946-5.095c-1.277-1.22-2.403-2.64-3.25-4.243c-0.837-1.605-1.381-3.384-1.568-5.206
		c-0.191-1.822-0.017-3.68,0.481-5.428c0.514-1.745,1.318-3.384,2.34-4.845c2.024-2.955,4.856-5.171,7.881-6.791
		c3.029-1.639,6.32-2.655,9.63-3.265c1.687-0.265,3.487-0.297,5.145,0.006C286.732,47.695,288.322,48.114,289.934,48.518z"/>
	<path fill="#006838" stroke="none" d="M679.283,37.685c-3.859,0.423-7.581,1.265-11.257,2.297l-2.748,0.807c-0.893,0.277-1.77,0.57-2.642,0.917
		c-1.735,0.683-3.408,1.493-4.979,2.439c-1.572,0.946-3.017,2.07-4.285,3.337c-1.279,1.254-2.369,2.681-3.156,4.239
		c-0.785,1.559-1.267,3.239-1.4,4.941c-0.132,1.704,0.145,3.427,0.773,5.028c0.626,1.602,1.57,3.106,2.783,4.408
		c1.21,1.304,2.653,2.419,4.206,3.39c1.564,0.96,3.266,1.717,5.019,2.373c1.679,0.667,3.561,0.856,5.431,0.991
		c1.87,0.097,3.762,0.057,5.587-0.303c1.822-0.345,3.585-1.058,4.74-2.472c1.175-1.395,1.615-3.317,1.703-5.203
		c0.125-1.905-0.171-3.832-0.171-5.763c0.147,1.92,0.592,3.81,0.616,5.77c0.037,1.931-0.272,4.016-1.502,5.697
		c-0.603,0.831-1.407,1.521-2.302,2.017c-0.904,0.495-1.846,0.839-2.813,1.104c-1.934,0.516-3.922,0.726-5.901,0.724
		c-1.97-0.018-3.982-0.148-5.965-0.724c-1.925-0.497-3.8-1.231-5.601-2.154c-3.571-1.847-6.847-4.806-8.506-8.779
		c-1.673-3.951-1.354-8.694,0.678-12.399c1.965-3.765,5.209-6.584,8.743-8.511c1.765-0.987,3.631-1.754,5.534-2.341
		c0.943-0.303,1.917-0.555,2.884-0.783c0.932-0.221,1.926-0.386,2.875-0.543C671.468,37.53,675.424,37.252,679.283,37.685z"/>
	<path fill="#2B3990" stroke="none" d="M544.98,20.254c-2.763,0.022-5.527,0.031-8.194,0.417c-2.659,0.399-5.266,1.176-7.898,1.945
		c-5.23,1.429-10.257,3.529-14.794,6.354c-4.505,2.85-8.503,6.523-11.255,10.976c-2.737,4.438-4.103,9.696-3.48,14.819
		c0.615,5.124,3.179,9.931,6.878,13.664c3.717,3.74,8.402,6.552,13.428,8.497c1.25,0.496,2.539,0.954,3.817,1.342
		c1.286,0.376,2.607,0.682,3.937,0.94c2.663,0.504,5.369,0.85,8.085,0.95c2.713,0.088,5.447-0.037,8.107-0.595
		c2.636-0.576,5.269-1.589,7.282-3.503c-1.842,2.076-4.449,3.382-7.121,4.142c-2.688,0.776-5.489,1.084-8.276,1.143
		c-5.564,0.097-11.201-0.671-16.532-2.5c-5.293-1.825-10.445-4.517-14.586-8.536c-2.067-1.996-3.875-4.3-5.257-6.868
		c-1.382-2.566-2.29-5.403-2.669-8.312c-0.375-2.91-0.204-5.889,0.477-8.734c0.692-2.844,1.883-5.542,3.417-7.995
		c1.535-2.456,3.412-4.67,5.505-6.623c2.106-1.941,4.422-3.624,6.856-5.077c4.872-2.917,10.235-4.833,15.673-6.099
		c2.708-0.547,5.466-1.125,8.304-1.178C539.51,19.349,542.264,19.761,544.98,20.254z"/>
	<path fill="000000" stroke="none" d="M338.827,52.063c-1.047,0.265-2.161,0.361-3.214,0.4c-1.061,0.052-1.915,0.2-2.76,0.6
		c-1.927,0.668-3.652,1.634-5.187,2.812c-1.518,1.193-2.758,2.675-3.622,4.324c-0.843,1.659-1.263,3.506-1.188,5.33
		c0.075,1.824,0.651,3.622,1.678,5.175c1.04,1.543,2.486,2.86,4.189,3.838c1.687,0.976,3.68,1.725,5.619,2.209
		c1.965,0.453,4.061,0.506,6.079-0.195c-1.773,1.196-4.073,1.613-6.257,1.45c-1.102-0.061-2.188-0.266-3.243-0.533
		c-1.033-0.265-2.132-0.552-3.155-1.025c-2.058-0.903-4.006-2.286-5.418-4.181c-1.441-1.864-2.325-4.198-2.458-6.585
		c-0.317-4.83,2.417-9.445,6.214-11.941c1.869-1.314,4.028-2.135,6.141-2.651c1.17-0.245,2.467-0.174,3.494,0.148
		C336.778,51.515,337.766,51.811,338.827,52.063z"/>
	<path fill="000000" stroke="none" d="M332.482,52.063c0.996-0.237,1.932-0.513,2.898-0.775c0.945-0.294,2.132-0.448,3.249-0.272
		c2.067,0.413,4.057,1.153,5.884,2.273c1.802,1.134,3.486,2.594,4.684,4.45c1.206,1.833,2.035,3.976,2.204,6.216
		c0.184,2.23-0.261,4.528-1.295,6.506c-1.035,1.975-2.569,3.66-4.391,4.814c-1.795,1.183-3.842,1.924-5.84,2.271
		c-2.033,0.383-4.121,0.376-6.087-0.031c1.99-0.327,3.883-0.756,5.652-1.493c1.801-0.732,3.477-1.517,4.89-2.672
		c1.391-1.149,2.561-2.52,3.25-4.116c0.703-1.581,0.997-3.315,0.845-5.03c-0.275-3.458-2.381-6.648-5.343-8.75
		c-1.48-1.062-3.175-1.901-4.928-2.517c-0.806-0.345-1.634-0.435-2.648-0.484C334.507,52.418,333.467,52.307,332.482,52.063z"/>
	<path fill="000000" stroke="none" d="M562.756,40.881c-1.047,0.265-2.161,0.361-3.214,0.4c-1.061,0.052-1.915,0.2-2.76,0.6
		c-1.926,0.668-3.652,1.634-5.187,2.811c-1.518,1.194-2.758,2.676-3.622,4.324c-0.843,1.66-1.263,3.506-1.188,5.33
		c0.075,1.824,0.651,3.622,1.678,5.176c1.04,1.542,2.485,2.86,4.189,3.838c1.687,0.976,3.68,1.725,5.619,2.209
		c1.965,0.452,4.061,0.506,6.079-0.195c-1.773,1.196-4.073,1.614-6.257,1.451c-1.102-0.061-2.188-0.266-3.243-0.533
		c-1.033-0.266-2.131-0.552-3.155-1.025c-2.058-0.903-4.006-2.286-5.417-4.181c-1.441-1.863-2.325-4.198-2.458-6.585
		c-0.316-4.83,2.417-9.445,6.215-11.941c1.869-1.314,4.028-2.135,6.142-2.651c1.171-0.245,2.467-0.174,3.494,0.148
		C560.708,40.333,561.695,40.629,562.756,40.881z"/>
	<path fill="000000" stroke="none" d="M556.411,40.881c0.996-0.237,1.932-0.513,2.898-0.775c0.945-0.294,2.132-0.448,3.249-0.272
		c2.067,0.413,4.057,1.153,5.884,2.273c1.802,1.134,3.487,2.595,4.684,4.45c1.207,1.833,2.036,3.977,2.204,6.216
		c0.184,2.231-0.261,4.528-1.295,6.507c-1.035,1.974-2.569,3.66-4.391,4.814c-1.796,1.183-3.842,1.924-5.84,2.272
		c-2.034,0.383-4.121,0.375-6.087-0.032c1.99-0.327,3.883-0.756,5.652-1.493c1.801-0.732,3.477-1.517,4.89-2.672
		c1.391-1.149,2.561-2.52,3.25-4.116c0.704-1.581,0.997-3.315,0.845-5.03c-0.275-3.458-2.381-6.648-5.343-8.75
		c-1.48-1.062-3.175-1.901-4.928-2.517c-0.806-0.345-1.634-0.435-2.648-0.484C558.436,41.236,557.396,41.125,556.411,40.881z"/>
	<path fill="000000" stroke="none" d="M213.349,46.978c-3.667,0.036-7.273,0.498-10.744,1.39c-3.443,0.908-6.85,2.179-9.61,4.163
		c-1.378,0.991-2.536,2.121-3.103,3.531c-0.306,0.661-0.383,1.381-0.273,1.547c0.039,0.099,0.112,0.199,0.324,0.342
		c0.204,0.139,0.521,0.274,0.869,0.385c1.458,0.437,3.299,0.565,5.1,0.738c1.819,0.188,3.69,0.389,5.585,0.805
		c0.947,0.211,1.901,0.476,2.846,0.855c0.928,0.356,1.914,0.916,2.683,1.521c1.692,1.267,3.042,3.121,3.479,5.283
		c0.459,2.149-0.02,4.34-0.952,6.126c-0.928,1.809-2.248,3.311-3.714,4.566c-2.979,2.479-6.525,4.018-10.142,4.886
		c-3.625,0.88-7.351,1.096-11,0.836c3.649-0.27,7.251-0.897,10.648-2.051c3.375-1.17,6.592-2.849,9.087-5.239
		c1.243-1.183,2.296-2.547,2.958-4.035c0.659-1.483,0.902-3.083,0.549-4.52c-0.333-1.434-1.306-2.698-2.552-3.577
		c-1.293-0.935-2.814-1.438-4.506-1.793c-1.68-0.347-3.45-0.512-5.264-0.681c-1.822-0.215-3.66-0.316-5.708-0.943
		c-0.515-0.176-1.054-0.39-1.605-0.768c-0.541-0.363-1.119-0.969-1.389-1.735c-0.278-0.76-0.246-1.515-0.116-2.114
		c0.132-0.62,0.33-1.115,0.574-1.628c0.205-0.424,0.497-0.947,0.811-1.373c0.317-0.437,0.665-0.833,1.03-1.199
		c0.731-0.731,1.531-1.34,2.356-1.874c3.349-2.059,7.028-3.101,10.717-3.648C205.981,46.253,209.742,46.262,213.349,46.978z"/>
	<path fill="000000" stroke="none" d="M135.106,53.466c3.992-0.607,8.011-0.863,12.097-0.581c2.051,0.146,4.108,0.433,6.24,1.3
		c1.044,0.446,2.183,1.181,2.937,2.422c0.755,1.259,0.8,2.703,0.66,3.831c-0.345,2.295-1.121,4.111-1.683,5.972
		c-0.613,1.835-1.015,3.661-1.169,5.508c-0.309,3.703,0.973,7.456,3.064,10.909c-1.527-1.325-2.824-2.947-3.801-4.803
		c-0.954-1.861-1.533-3.981-1.604-6.128c-0.124-2.151,0.292-4.271,0.778-6.265c0.494-1.981,1.216-3.903,1.44-5.57
		c0.12-0.831,0.06-1.496-0.215-1.978c-0.265-0.498-0.854-0.946-1.606-1.331c-1.516-0.782-3.45-1.165-5.339-1.554
		C143.068,54.5,139.089,54.098,135.106,53.466z"/>
	<path fill="000000" stroke="none" d="M230.047,47.977c0.625,2.747,0.936,5.494,1.175,8.241c0.22,2.747,0.323,5.494,0.324,8.241
		c0.002,2.747-0.1,5.494-0.32,8.241c-0.238,2.747-0.551,5.494-1.18,8.241c-0.628-2.747-0.942-5.494-1.18-8.241
		c-0.22-2.747-0.322-5.494-0.32-8.241c0.001-2.747,0.104-5.494,0.324-8.241C229.111,53.471,229.422,50.724,230.047,47.977z"/>
	<path fill="000000" stroke="none" d="M230.047,47.977c3.824-0.612,7.696-0.805,11.603-0.489c1.959,0.144,3.914,0.478,5.893,1.08
		c0.988,0.313,1.97,0.739,2.938,1.384c0.48,0.329,0.958,0.725,1.381,1.25c0.421,0.519,0.779,1.205,0.905,1.967
		c0.125,0.763-0.002,1.531-0.241,2.162c-0.241,0.639-0.578,1.168-0.943,1.63c-0.745,0.913-1.585,1.598-2.46,2.18
		c-1.766,1.127-3.616,1.948-5.538,2.495c-3.811,1.118-7.864,1.428-11.662,0.59c3.841-0.416,7.482-1.369,10.873-2.795
		c1.67-0.749,3.319-1.553,4.693-2.614c0.682-0.521,1.319-1.082,1.755-1.676c0.46-0.59,0.635-1.156,0.563-1.499
		c-0.026-0.352-0.379-0.853-1-1.29c-0.607-0.443-1.395-0.79-2.205-1.115c-1.635-0.658-3.456-1.043-5.276-1.443
		C237.653,49.067,233.865,48.605,230.047,47.977z"/>
	<path fill="000000" stroke="none" d="M232.196,62.271c2.736-0.613,5.492-0.88,8.343-0.733c1.43,0.113,2.883,0.26,4.451,1.029
		c0.766,0.38,1.635,1.096,2.067,2.136c0.424,1.036,0.349,2.022,0.234,2.811c-0.286,1.591-0.788,2.831-1.161,4.086
		c-0.389,1.24-0.683,2.447-0.797,3.675c-0.266,2.452,0.429,4.996,1.649,7.521c-1.108-0.866-2.034-1.973-2.755-3.25
		c-0.693-1.286-1.151-2.761-1.252-4.271c-0.118-1.508,0.089-3.012,0.406-4.407c0.309-1.388,0.77-2.723,0.95-3.829
		c0.099-0.549,0.08-0.985-0.016-1.228c-0.074-0.246-0.286-0.494-0.709-0.766c-0.852-0.532-2.14-0.885-3.397-1.18
		C237.643,63.272,234.92,62.905,232.196,62.271z"/>
	<path fill="000000" stroke="none" d="M414.167,48.174c0.625,2.747,0.936,5.494,1.175,8.241c0.22,2.747,0.323,5.494,0.324,8.241
		c0.002,2.747-0.1,5.494-0.32,8.241c-0.238,2.747-0.551,5.494-1.18,8.241c-0.628-2.747-0.942-5.494-1.18-8.241
		c-0.22-2.747-0.322-5.494-0.32-8.241c0.001-2.747,0.104-5.494,0.324-8.241C413.231,53.668,413.542,50.921,414.167,48.174z"/>
	<path fill="000000" stroke="none" d="M414.167,48.174c3.824-0.612,7.696-0.805,11.603-0.489c1.959,0.144,3.914,0.478,5.892,1.08
		c0.988,0.313,1.97,0.739,2.938,1.384c0.48,0.329,0.958,0.725,1.381,1.25c0.421,0.519,0.779,1.205,0.905,1.968
		c0.125,0.763-0.002,1.531-0.242,2.162c-0.24,0.638-0.578,1.168-0.943,1.63c-0.745,0.913-1.585,1.598-2.46,2.18
		c-1.766,1.127-3.616,1.948-5.538,2.495c-3.811,1.118-7.863,1.429-11.662,0.591c3.841-0.416,7.482-1.369,10.874-2.795
		c1.669-0.749,3.318-1.553,4.692-2.614c0.682-0.521,1.32-1.082,1.756-1.676c0.46-0.59,0.635-1.156,0.563-1.499
		c-0.026-0.351-0.379-0.852-1-1.29c-0.607-0.443-1.395-0.79-2.205-1.115c-1.635-0.657-3.456-1.042-5.276-1.442
		C421.773,49.265,417.985,48.802,414.167,48.174z"/>
	<path fill="000000" stroke="none" d="M416.316,62.469c2.736-0.613,5.492-0.88,8.343-0.733c1.43,0.113,2.883,0.26,4.451,1.029
		c0.766,0.38,1.635,1.096,2.067,2.136c0.424,1.036,0.349,2.022,0.234,2.811c-0.286,1.591-0.788,2.831-1.161,4.085
		c-0.389,1.241-0.682,2.447-0.796,3.676c-0.266,2.452,0.429,4.996,1.649,7.521c-1.108-0.866-2.034-1.973-2.755-3.25
		c-0.693-1.286-1.151-2.761-1.252-4.27c-0.119-1.509,0.089-3.013,0.405-4.408c0.309-1.388,0.77-2.723,0.95-3.829
		c0.099-0.549,0.08-0.985-0.016-1.228c-0.074-0.246-0.286-0.494-0.709-0.766c-0.851-0.532-2.14-0.884-3.397-1.18
		C421.763,63.469,419.04,63.103,416.316,62.469z"/>
	<path fill="000000" stroke="none" d="M166.074,47.947c0.625,2.907,0.936,5.813,1.175,8.72c0.22,2.906,0.323,5.813,0.324,8.72c0.002,2.907-0.1,5.813-0.32,8.72
		c-0.238,2.907-0.551,5.813-1.18,8.72c-0.628-2.907-0.942-5.813-1.18-8.72c-0.22-2.906-0.322-5.813-0.32-8.72
		c0.001-2.907,0.104-5.813,0.324-8.72C165.138,53.76,165.449,50.854,166.074,47.947z"/>
	<path fill="000000" stroke="none" d="M161.246,47.947c2.449-0.625,4.898-0.936,7.347-1.175c2.449-0.22,4.898-0.323,7.347-0.324
		c2.449-0.002,4.898,0.1,7.347,0.32c2.449,0.238,4.898,0.551,7.347,1.18c-2.449,0.628-4.898,0.942-7.347,1.18
		c-2.449,0.22-4.898,0.322-7.347,0.32c-2.449-0.001-4.898-0.104-7.347-0.324C166.144,48.883,163.695,48.572,161.246,47.947z"/>
	<path fill="#BE1E2D" stroke="none" d="M220.88,43.241c0.625,2.907,0.936,5.813,1.175,8.72c0.22,2.907,0.323,5.813,0.324,8.72
		c0.002,2.907-0.1,5.813-0.32,8.72c-0.238,2.906-0.551,5.813-1.18,8.72c-0.628-2.907-0.942-5.813-1.18-8.72
		c-0.22-2.907-0.322-5.813-0.32-8.72c0.001-2.907,0.104-5.813,0.324-8.72C219.944,49.055,220.255,46.148,220.88,43.241z"/>
	<path fill="000000" stroke="none" d="M353.156,38.283c0.621,3.453,0.945,6.905,1.166,10.357c0.239,3.452,0.328,6.905,0.333,10.357
		c-0.001,3.453-0.091,6.905-0.329,10.357c-0.22,3.453-0.546,6.905-1.17,10.357c-0.625-3.453-0.951-6.905-1.17-10.357
		c-0.238-3.452-0.328-6.905-0.329-10.357c0.006-3.452,0.095-6.905,0.333-10.357C352.211,45.188,352.536,41.735,353.156,38.283z"/>
	<path fill="000000" stroke="none" d="M369.825,38.283c0.621,3.453,0.945,6.905,1.166,10.357c0.239,3.452,0.328,6.905,0.333,10.357
		c-0.001,3.453-0.091,6.905-0.329,10.357c-0.22,3.453-0.546,6.905-1.17,10.357c-0.625-3.453-0.951-6.905-1.17-10.357
		c-0.238-3.452-0.328-6.905-0.329-10.357c0.006-3.452,0.095-6.905,0.333-10.357C368.879,45.188,369.204,41.735,369.825,38.283z"/>
	<path fill="000000" stroke="none" d="M353.235,39.084c2.017,3.091,3.761,6.3,5.411,9.55c1.666,3.243,3.194,6.546,4.646,9.881
		c1.446,3.338,2.81,6.712,4.039,10.145c1.245,3.425,2.393,6.893,3.267,10.479c-2.02-3.089-3.766-6.298-5.415-9.548
		c-1.665-3.243-3.194-6.545-4.643-9.883c-1.441-3.34-2.807-6.713-4.035-10.146C355.262,46.136,354.113,42.669,353.235,39.084z"/>
	<path fill="000000" stroke="none" d="M626.982,31.818c0.621,3.452,0.945,6.905,1.166,10.357c0.239,3.452,0.328,6.904,0.333,10.357
		c-0.001,3.453-0.091,6.905-0.329,10.357c-0.22,3.453-0.546,6.905-1.17,10.357c-0.625-3.452-0.951-6.905-1.17-10.357
		c-0.238-3.452-0.328-6.904-0.329-10.357c0.006-3.453,0.095-6.905,0.333-10.357C626.037,38.723,626.362,35.271,626.982,31.818z"/>
	<path fill="000000" stroke="none" d="M643.651,31.818c0.621,3.452,0.945,6.905,1.166,10.357c0.239,3.452,0.328,6.904,0.333,10.357
		c-0.001,3.453-0.091,6.905-0.329,10.357c-0.22,3.453-0.546,6.905-1.17,10.357c-0.625-3.452-0.951-6.905-1.17-10.357
		c-0.238-3.452-0.328-6.904-0.329-10.357c0.006-3.453,0.095-6.905,0.333-10.357C642.706,38.723,643.031,35.271,643.651,31.818z"/>
	<path fill="000000" stroke="none" d="M627.063,32.62c2.017,3.091,3.761,6.3,5.411,9.55c1.666,3.243,3.194,6.545,4.646,9.881
		c1.445,3.338,2.81,6.712,4.039,10.145c1.245,3.425,2.393,6.893,3.267,10.479c-2.02-3.089-3.766-6.298-5.415-9.548
		c-1.665-3.243-3.194-6.545-4.643-9.883c-1.441-3.34-2.807-6.713-4.035-10.146C629.089,39.671,627.94,36.205,627.063,32.62z"/>
	<path fill="000000" stroke="none" d="M577.647,38.283c0.621,3.453,0.945,6.905,1.166,10.357c0.239,3.452,0.328,6.905,0.333,10.357
		c-0.001,3.453-0.091,6.905-0.329,10.357c-0.22,3.453-0.546,6.905-1.17,10.357c-0.625-3.453-0.951-6.905-1.17-10.357
		c-0.238-3.452-0.328-6.905-0.329-10.357c0.006-3.452,0.095-6.905,0.333-10.357C576.702,45.188,577.027,41.735,577.647,38.283z"/>
	<path fill="000000" stroke="none" d="M594.316,38.283c0.621,3.453,0.945,6.905,1.166,10.357c0.239,3.452,0.328,6.905,0.333,10.357
		c-0.001,3.453-0.091,6.905-0.329,10.357c-0.22,3.453-0.546,6.905-1.17,10.357c-0.625-3.453-0.951-6.905-1.17-10.357
		c-0.238-3.452-0.328-6.905-0.329-10.357c0.006-3.452,0.095-6.905,0.333-10.357C593.371,45.188,593.696,41.735,594.316,38.283z"/>
	<path fill="000000" stroke="none" d="M577.727,39.084c2.017,3.091,3.761,6.3,5.411,9.55c1.666,3.243,3.194,6.546,4.647,9.881
		c1.445,3.338,2.81,6.712,4.039,10.145c1.245,3.425,2.393,6.893,3.267,10.479c-2.02-3.089-3.766-6.298-5.415-9.548
		c-1.665-3.243-3.194-6.545-4.643-9.883c-1.441-3.34-2.807-6.713-4.035-10.146C579.753,46.136,578.604,42.669,577.727,39.084z"/>
	<path fill="#BE1E2D" stroke="none" d="M207.32,43.241c2.449-0.625,4.898-0.936,7.347-1.175c2.449-0.22,4.898-0.323,7.347-0.324
		c2.449-0.002,4.898,0.1,7.347,0.32c2.449,0.238,4.898,0.551,7.347,1.18c-2.449,0.628-4.898,0.942-7.347,1.18
		c-2.449,0.22-4.898,0.322-7.347,0.32c-2.449-0.001-4.898-0.104-7.347-0.324C212.218,44.177,209.769,43.866,207.32,43.241z"/>
	<path fill="#BE1E2D" stroke="none" d="M295.007,43.241c0.625,2.907,0.936,5.813,1.175,8.72c0.22,2.907,0.323,5.813,0.324,8.72
		c0.002,2.907-0.1,5.813-0.32,8.72c-0.238,2.906-0.551,5.813-1.18,8.72c-0.628-2.907-0.942-5.813-1.18-8.72
		c-0.22-2.907-0.322-5.813-0.32-8.72c0.001-2.907,0.104-5.813,0.324-8.72C294.071,49.055,294.382,46.148,295.007,43.241z"/>
	<path fill="#BE1E2D" stroke="none" d="M281.447,43.241c2.449-0.625,4.898-0.936,7.347-1.175c2.449-0.22,4.898-0.323,7.347-0.324
		c2.449-0.002,4.898,0.1,7.347,0.32c2.449,0.238,4.898,0.551,7.347,1.18c-2.449,0.628-4.898,0.942-7.347,1.18
		c-2.449,0.22-4.898,0.322-7.347,0.32c-2.449-0.001-4.898-0.104-7.347-0.324C286.345,44.177,283.896,43.866,281.447,43.241z"/>
	<path fill="000000" stroke="none" d="M255.375,45.594c0.621,3.299,0.945,6.598,1.166,9.896c0.239,3.299,0.328,6.598,0.333,9.896
		c-0.001,3.298-0.091,6.597-0.329,9.896c-0.22,3.299-0.546,6.598-1.17,9.896c-0.625-3.299-0.951-6.598-1.17-9.896
		c-0.238-3.299-0.328-6.598-0.329-9.896c0.006-3.299,0.095-6.598,0.333-9.896C254.43,52.191,254.755,48.893,255.375,45.594z"/>
	<path fill="000000" stroke="none" d="M241.815,45.594c2.449-0.625,4.898-0.936,7.347-1.175c2.449-0.22,4.898-0.323,7.347-0.324
		c2.449-0.002,4.898,0.1,7.347,0.32c2.449,0.238,4.898,0.551,7.347,1.18c-2.449,0.628-4.898,0.942-7.347,1.18
		c-2.449,0.22-4.898,0.322-7.347,0.32c-2.449-0.001-4.898-0.104-7.347-0.324C246.713,46.53,244.264,46.219,241.815,45.594z"/>
	<path fill="000000" stroke="none" d="M240.682,85.179c2.449-0.625,4.898-0.936,7.347-1.175c2.449-0.22,4.898-0.323,7.347-0.324
		c2.449-0.002,4.898,0.1,7.347,0.32c2.449,0.238,4.898,0.551,7.347,1.18c-2.449,0.628-4.898,0.942-7.347,1.18
		c-2.449,0.22-4.898,0.322-7.347,0.32c-2.449-0.001-4.898-0.104-7.347-0.324C245.58,86.115,243.131,85.804,240.682,85.179z"/>
	<path fill="000000" stroke="none" d="M314.888,48.354c0.625,2.716,0.936,5.431,1.175,8.147c0.22,2.716,0.323,5.431,0.324,8.147
		c0.002,2.716-0.1,5.431-0.32,8.147c-0.238,2.716-0.551,5.431-1.18,8.147c-0.628-2.716-0.942-5.431-1.18-8.147
		c-0.22-2.716-0.322-5.431-0.32-8.147c0.001-2.716,0.104-5.431,0.324-8.147C313.952,53.785,314.263,51.069,314.888,48.354z"/>
	<path fill="000000" stroke="none" d="M303.31,48.354c2.091-0.625,4.182-0.936,6.273-1.175c2.091-0.22,4.182-0.323,6.273-0.324c2.091-0.002,4.182,0.1,6.273,0.32
		c2.091,0.238,4.182,0.551,6.273,1.18c-2.091,0.628-4.182,0.942-6.273,1.18c-2.091,0.22-4.182,0.322-6.273,0.32
		c-2.091-0.001-4.182-0.104-6.273-0.324C307.492,49.29,305.4,48.979,303.31,48.354z"/>
	<path fill="000000" stroke="none" d="M302.342,80.941c2.091-0.625,4.182-0.936,6.273-1.175c2.091-0.22,4.182-0.323,6.273-0.324
		c2.091-0.002,4.182,0.1,6.273,0.32c2.091,0.238,4.182,0.551,6.273,1.18c-2.091,0.628-4.182,0.942-6.273,1.18
		c-2.091,0.22-4.182,0.322-6.273,0.32c-2.091-0.001-4.182-0.104-6.273-0.324C306.524,81.877,304.433,81.566,302.342,80.941z"/>
	<path fill="000000" stroke="none" d="M610.464,38.831c0.625,2.716,0.936,5.431,1.175,8.147c0.22,2.716,0.323,5.431,0.324,8.147
		c0.002,2.716-0.1,5.431-0.32,8.147c-0.238,2.716-0.551,5.431-1.18,8.147c-0.628-2.716-0.942-5.431-1.18-8.147
		c-0.22-2.716-0.322-5.431-0.32-8.147c0.001-2.716,0.104-5.431,0.324-8.147C609.528,44.262,609.839,41.546,610.464,38.831z"/>
	<path fill="000000" stroke="none" d="M598.886,38.831c2.091-0.625,4.182-0.936,6.273-1.175c2.091-0.22,4.182-0.323,6.273-0.324
		c2.091-0.002,4.182,0.1,6.273,0.32c2.091,0.238,4.182,0.551,6.273,1.18c-2.091,0.628-4.182,0.942-6.273,1.18
		c-2.091,0.22-4.182,0.322-6.273,0.32c-2.091-0.001-4.182-0.104-6.273-0.324C603.068,39.767,600.977,39.456,598.886,38.831z"/>
	<path fill="000000" stroke="none" d="M597.918,71.418c2.091-0.625,4.182-0.936,6.273-1.175c2.091-0.22,4.182-0.323,6.273-0.324
		c2.091-0.002,4.182,0.1,6.273,0.32c2.091,0.238,4.182,0.551,6.273,1.18c-2.091,0.628-4.182,0.942-6.273,1.18
		c-2.091,0.22-4.182,0.322-6.273,0.32c-2.091-0.001-4.182-0.104-6.273-0.324C602.1,72.354,600.009,72.043,597.918,71.418z"/>
	<path fill="000000" stroke="none" d="M162.363,65.387c1.674-0.621,3.347-0.943,5.021-1.175c1.673-0.22,3.347-0.323,5.021-0.324
		c1.673-0.002,3.347,0.1,5.021,0.32c1.674,0.231,3.347,0.555,5.021,1.18c-1.674,0.625-3.347,0.948-5.021,1.18
		c-1.673,0.22-3.347,0.322-5.021,0.32c-1.674-0.001-3.348-0.104-5.021-0.324C165.71,66.33,164.037,66.007,162.363,65.387z"/>
	<path fill="000000" stroke="none" d="M393.7,30.507c0.621,4.458,0.945,8.917,1.166,13.375c0.138,2.229,0.169,4.458,0.25,6.688l0.083,6.688
		c0.009,4.459-0.111,8.917-0.329,13.376c-0.22,4.458-0.546,8.917-1.17,13.375c-0.625-4.458-0.951-8.917-1.17-13.375
		c-0.217-4.458-0.337-8.917-0.329-13.376l0.083-6.688c0.081-2.229,0.112-4.458,0.25-6.688
		C392.755,39.424,393.08,34.965,393.7,30.507z"/>
	<path fill="000000" stroke="none" d="M388.495,30.507c2.64-0.625,5.28-0.936,7.92-1.175c2.64-0.22,5.279-0.323,7.919-0.324c2.64-0.002,5.28,0.1,7.919,0.32
		c2.64,0.238,5.28,0.551,7.92,1.18c-2.64,0.628-5.28,0.942-7.92,1.18c-2.64,0.22-5.279,0.322-7.919,0.32
		c-2.64-0.001-5.28-0.104-7.919-0.324C393.775,31.443,391.135,31.132,388.495,30.507z"/>
	<path fill="000000" stroke="none" d="M389.699,57.258c1.804-0.621,3.608-0.943,5.413-1.175c1.804-0.22,3.608-0.323,5.413-0.324
		c1.804-0.002,3.608,0.1,5.413,0.32c1.804,0.231,3.608,0.555,5.413,1.18c-1.804,0.625-3.608,0.948-5.413,1.18
		c-1.804,0.22-3.608,0.322-5.413,0.32c-1.804-0.001-3.608-0.104-5.413-0.324C393.308,58.201,391.503,57.878,389.699,57.258z"/>
	<path fill="000000" stroke="none" d="M162.363,80.173c2.449-0.625,4.898-0.936,7.347-1.175c2.449-0.22,4.898-0.323,7.347-0.324
		c2.449-0.002,4.898,0.1,7.347,0.32c2.449,0.238,4.898,0.551,7.347,1.18c-2.449,0.628-4.898,0.942-7.347,1.18
		c-2.449,0.22-4.898,0.322-7.347,0.32c-2.449-0.001-4.898-0.104-7.347-0.324C167.261,81.109,164.812,80.798,162.363,80.173z"/>
	<path fill="000000" stroke="none" d="M533.908,37.685c0.625,2.907,0.936,5.813,1.175,8.72c0.22,2.907,0.323,5.813,0.324,8.72c0.002,2.907-0.1,5.813-0.32,8.72
		c-0.238,2.906-0.551,5.813-1.18,8.72c-0.628-2.907-0.942-5.813-1.18-8.72c-0.22-2.907-0.322-5.813-0.32-8.72
		c0.001-2.907,0.104-5.813,0.324-8.72C532.972,43.498,533.283,40.591,533.908,37.685z"/>
	<path fill="000000" stroke="none" d="M530.196,69.911c2.449-0.625,4.898-0.936,7.347-1.175c2.449-0.22,4.898-0.323,7.347-0.324
		c2.449-0.002,4.898,0.1,7.347,0.32c2.449,0.238,4.898,0.551,7.347,1.18c-2.449,0.628-4.898,0.942-7.347,1.18
		c-2.449,0.22-4.898,0.322-7.347,0.32c-2.449-0.001-4.898-0.104-7.347-0.324C535.094,70.847,532.645,70.536,530.196,69.911z"/>
	<path fill="000000" stroke="none" d="M440.266,44.832c0.625,2.907,0.936,5.813,1.175,8.72c0.22,2.907,0.323,5.813,0.324,8.72c0.002,2.907-0.1,5.813-0.32,8.72
		c-0.238,2.907-0.551,5.813-1.18,8.72c-0.628-2.907-0.942-5.813-1.18-8.72c-0.22-2.907-0.322-5.813-0.32-8.72
		c0.001-2.906,0.104-5.813,0.324-8.72C439.33,50.645,439.641,47.738,440.266,44.832z"/>
	<path fill="000000" stroke="none" d="M435.438,44.832c2.449-0.625,4.898-0.936,7.347-1.175c2.449-0.22,4.898-0.323,7.347-0.324
		c2.449-0.002,4.898,0.1,7.347,0.32c2.449,0.238,4.898,0.551,7.347,1.18c-2.449,0.628-4.898,0.942-7.347,1.18
		c-2.449,0.22-4.898,0.322-7.347,0.32c-2.449-0.001-4.898-0.104-7.347-0.324C440.335,45.768,437.886,45.457,435.438,44.832z"/>
	<path fill="000000" stroke="none" d="M436.555,62.271c1.674-0.621,3.347-0.943,5.021-1.175c1.674-0.22,3.348-0.323,5.021-0.324
		c1.673-0.002,3.347,0.1,5.021,0.32c1.673,0.231,3.347,0.555,5.021,1.18c-1.674,0.625-3.347,0.948-5.021,1.18
		c-1.674,0.22-3.348,0.322-5.021,0.32c-1.673-0.001-3.347-0.104-5.021-0.324C439.902,63.214,438.229,62.892,436.555,62.271z"/>
	<path fill="000000" stroke="none" d="M436.555,77.058c2.449-0.625,4.898-0.936,7.347-1.175c2.449-0.22,4.898-0.323,7.347-0.324
		c2.449-0.002,4.898,0.1,7.347,0.32c2.449,0.238,4.898,0.551,7.347,1.18c-2.449,0.628-4.898,0.942-7.347,1.18
		c-2.449,0.22-4.898,0.322-7.347,0.32c-2.449-0.001-4.898-0.104-7.347-0.324C441.453,77.994,439.003,77.683,436.555,77.058z"/>
	<path fill="000000" stroke="none" d="M465.029,41.557c0.625,2.907,0.936,5.813,1.175,8.72c0.22,2.906,0.323,5.813,0.324,8.72c0.002,2.907-0.1,5.813-0.32,8.72
		c-0.238,2.907-0.551,5.813-1.18,8.72c-0.628-2.907-0.942-5.813-1.18-8.72c-0.22-2.906-0.322-5.813-0.32-8.72
		c0.001-2.907,0.104-5.813,0.324-8.72C464.093,47.371,464.404,44.464,465.029,41.557z"/>
	<path fill="000000" stroke="none" d="M460.201,41.557c2.449-0.625,4.898-0.936,7.347-1.175c2.449-0.22,4.898-0.323,7.347-0.324
		c2.449-0.002,4.898,0.1,7.347,0.32c2.449,0.238,4.898,0.551,7.347,1.18c-2.449,0.628-4.898,0.942-7.347,1.18
		c-2.449,0.22-4.898,0.322-7.347,0.32c-2.449-0.001-4.898-0.104-7.347-0.324C465.099,42.493,462.65,42.182,460.201,41.557z"/>
	<path fill="000000" stroke="none" d="M461.318,58.997c1.674-0.621,3.347-0.943,5.021-1.175c1.674-0.22,3.348-0.323,5.021-0.324
		c1.673-0.002,3.347,0.1,5.021,0.32c1.673,0.231,3.347,0.555,5.021,1.18c-1.674,0.625-3.347,0.948-5.021,1.18
		c-1.674,0.22-3.348,0.322-5.021,0.32c-1.673-0.001-3.347-0.104-5.021-0.324C464.666,59.94,462.992,59.618,461.318,58.997z"/>
	<path fill="000000" stroke="none" d="M461.318,73.784c2.449-0.625,4.898-0.936,7.347-1.175c2.449-0.22,4.898-0.323,7.347-0.324
		c2.449-0.002,4.898,0.1,7.347,0.32c2.449,0.238,4.898,0.551,7.347,1.18c-2.449,0.628-4.898,0.942-7.347,1.18
		c-2.449,0.22-4.898,0.322-7.347,0.32c-2.449-0.001-4.898-0.104-7.347-0.324C466.216,74.72,463.767,74.409,461.318,73.784z"/>
	<path fill="#006838" stroke="none" d="M663.08,58.997c1.976-0.414,3.951-0.63,5.927-0.777c1.976-0.146,3.952-0.224,5.927-0.222
		c1.976-0.005,3.951,0.074,5.927,0.219c1.976,0.146,3.951,0.364,5.927,0.78c-1.976,0.417-3.951,0.634-5.927,0.78
		c-1.976,0.145-3.952,0.225-5.927,0.219c-1.976,0.002-3.951-0.076-5.927-0.222C667.031,59.627,665.056,59.411,663.08,58.997z"/>
</g>
</svg>
