<?xml version="1.0" encoding="UTF-8" standalone="no"?>
<!-- Generator: Adobe Illustrator 15.0.0, SVG Export Plug-In . SVG Version: 6.00 Build 0)  -->

<svg
   xmlns:dc="http://purl.org/dc/elements/1.1/"
   xmlns:cc="http://creativecommons.org/ns#"
   xmlns:rdf="http://www.w3.org/1999/02/22-rdf-syntax-ns#"
   xmlns:svg="http://www.w3.org/2000/svg"
   xmlns="http://www.w3.org/2000/svg"
   xmlns:sodipodi="http://sodipodi.sourceforge.net/DTD/sodipodi-0.dtd"
   xmlns:inkscape="http://www.inkscape.org/namespaces/inkscape"
   version="1.1"
   id="Layer_1"
   x="0px"
   y="0px"
   width="946.137px"
   height="615.643px"
   viewBox="0 0 946.137 615.643"
   enable-background="new 0 0 946.137 615.643"
   xml:space="preserve"
   inkscape:version="0.48.2 r9819"
   sodipodi:docname="rf-diagram.svg"><metadata
   id="metadata243"><rdf:RDF><cc:Work
       rdf:about=""><dc:format>image/svg+xml</dc:format><dc:type
         rdf:resource="http://purl.org/dc/dcmitype/StillImage" /></cc:Work></rdf:RDF></metadata><defs
   id="defs241" /><sodipodi:namedview
   pagecolor="#ffffff"
   bordercolor="#666666"
   borderopacity="1"
   objecttolerance="10"
   gridtolerance="10"
   guidetolerance="10"
   inkscape:pageopacity="0"
   inkscape:pageshadow="2"
   inkscape:window-width="1470"
   inkscape:window-height="871"
   id="namedview239"
   showgrid="false"
   inkscape:zoom="0.76667808"
   inkscape:cx="366.61033"
   inkscape:cy="299.28061"
   inkscape:window-x="0"
   inkscape:window-y="25"
   inkscape:window-maximized="0"
   inkscape:current-layer="Layer_1" />
<rect
   x="684.137"
   y="43.183"
   fill="#FFE9BA"
   stroke="#000000"
   width="208.098"
   height="91.39"
   id="rect3" />
<path
   d="m 724.429,269.22 c -13.588,-8.581 -29.685,-13.547 -46.938,-13.547 -17.781,0 -35.041,5.781 -48.881,14.845"
   id="path5"
   fill="none"
   stroke="#00ff00"
   stroke-width="2" />
<path
   d="m 722.077,272.557 c -12.896,-8.088 -28.138,-12.764 -44.479,-12.764 -17.262,0 -33.303,5.217 -46.637,14.162"
   id="path7"
   fill="none"
   stroke="#00ff00"
   stroke-width="2" />
<path
   d="m 628.588,270.49 c -4.104,2.757 -7.969,5.852 -11.546,9.244 m -1.727,1.683 c -15.876,15.903 -25.691,37.854 -25.691,62.101 0,48.545 39.352,87.896 87.896,87.896 48.544,0 87.896,-39.352 87.896,-87.896 0,-31.287 -16.348,-58.758 -40.968,-74.332"
   id="path9"
   fill="none"
   stroke="#0000ff"
   stroke-width="2" />
<path
   d="m 630.954,273.95 c -22.397,15.021 -37.14,40.573 -37.14,69.567 0,46.229 37.477,83.702 83.699,83.702 46.229,0 83.705,-37.477 83.705,-83.702 0,-21.115 -7.813,-40.402 -20.718,-55.129 m -2.135,-2.353 c -4.771,-5.049 -10.396,-9.74 -16.288,-13.479"
   id="path11"
   fill="none"
   stroke="#0000ff"
   stroke-width="2" />
<line
   fill="none"
   stroke="#0000FF"
   stroke-width="2"
   x1="231.683"
   y1="116"
   x2="277.773"
   y2="116"
   id="line13" />
<line
   fill="none"
   stroke="#00FF00"
   stroke-width="2"
   x1="277.773"
   y1="116"
   x2="410.688"
   y2="116"
   id="line15" />
<line
   fill="none"
   stroke="#0000FF"
   stroke-width="2"
   x1="410.688"
   y1="116"
   x2="456.777"
   y2="116"
   id="line17" />
<line
   fill="none"
   stroke="#0000FF"
   stroke-width="2"
   x1="231.683"
   y1="118.945"
   x2="277.773"
   y2="118.945"
   id="line19" />
<line
   fill="none"
   stroke="#0000FF"
   stroke-width="2"
   x1="697.189"
   y1="65.882"
   x2="743.279"
   y2="65.882"
   id="line21" />
<line
   fill="none"
   stroke="#F200FF"
   stroke-width="2"
   x1="697.189"
   y1="117.521"
   x2="743.279"
   y2="117.521"
   id="line23" />
<line
   fill="none"
   stroke="#00FF00"
   stroke-width="2"
   x1="697.189"
   y1="91.701"
   x2="743.279"
   y2="91.701"
   id="line25" />
<line
   fill="none"
   stroke="#00FF00"
   stroke-width="2"
   x1="277.773"
   y1="118.945"
   x2="410.688"
   y2="118.945"
   id="line27" />
<line
   fill="none"
   stroke="#0000FF"
   stroke-width="2"
   x1="410.688"
   y1="118.945"
   x2="456.777"
   y2="118.945"
   id="line29" />
<line
   fill="none"
   stroke="#0000FF"
   stroke-width="2"
   x1="29.907"
   y1="45.641"
   x2="75.998"
   y2="45.641"
   id="line31" />
<line
   fill="none"
   stroke="#00FF00"
   stroke-width="2"
   x1="177.703"
   y1="73.91"
   x2="223.793"
   y2="73.91"
   id="line33" />
<line
   fill="none"
   stroke="#00FF00"
   stroke-width="2"
   x1="50.341"
   y1="61.927"
   x2="222.104"
   y2="61.927"
   id="line35" />
<line
   fill="none"
   stroke="#00FF00"
   stroke-width="2"
   x1="50.341"
   y1="64.999"
   x2="222.104"
   y2="64.999"
   id="line37" />
<line
   fill="none"
   stroke="#F200FF"
   stroke-width="2"
   x1="79.106"
   y1="484.791"
   x2="208.885"
   y2="522.471"
   id="line39" />
<line
   fill="none"
   stroke="#F200FF"
   stroke-width="2"
   x1="78.25"
   y1="487.742"
   x2="208.029"
   y2="525.422"
   id="line41" />
<line
   fill="none"
   stroke="#F200FF"
   stroke-width="2"
   x1="131.364"
   y1="480.896"
   x2="208.861"
   y2="456.86"
   id="line43" />
<line
   fill="none"
   stroke="#F200FF"
   stroke-width="2"
   x1="132.274"
   y1="483.831"
   x2="209.771"
   y2="459.795"
   id="line45" />
<line
   fill="none"
   stroke="#F200FF"
   stroke-width="2"
   x1="76.037"
   y1="445.098"
   x2="247.561"
   y2="436.047"
   id="line47" />
<line
   fill="none"
   stroke="#F200FF"
   stroke-width="2"
   x1="76.198"
   y1="448.166"
   x2="247.723"
   y2="439.115"
   id="line49" />
<line
   fill="none"
   stroke="#00FF00"
   stroke-width="2"
   x1="75.998"
   y1="45.641"
   x2="122.087"
   y2="45.641"
   id="line51" />
<line
   fill="none"
   stroke="#0000FF"
   stroke-width="2"
   x1="223.793"
   y1="73.91"
   x2="269.884"
   y2="73.91"
   id="line53" />
<line
   fill="none"
   stroke="#000000"
   x1="191.837"
   y1="76.061"
   x2="177.703"
   y2="76.061"
   id="line55" />
<line
   fill="none"
   stroke="#000000"
   x1="177.703"
   y1="76.061"
   x2="184.771"
   y2="80.67"
   id="line57" />
<line
   fill="none"
   stroke="#000000"
   x1="107.339"
   y1="43.183"
   x2="121.474"
   y2="43.183"
   id="line59" />
<line
   fill="none"
   stroke="#000000"
   x1="121.474"
   y1="43.183"
   x2="114.406"
   y2="38.574"
   id="line61" />
<circle
   cx="507.75201"
   cy="219.382"
   r="65.954002"
   id="circle63"
   fill="none"
   stroke="#f200ff"
   stroke-width="2"
    />
<path
   d="M 528.16403,153.704"
   id="path65"
   fill="none"
   stroke="#0000ff"
   stroke-width="2" />
<circle
   cx="507.75201"
   cy="219.381"
   r="62.808998"
   id="circle67"
   fill="none"
   stroke="#f200ff"
   stroke-width="2" />
<circle
   fill="none"
   stroke="#F200FF"
   stroke-width="2"
   cx="368.989"
   cy="339.909"
   r="65.954"
   id="circle69" />
<circle
   fill="none"
   stroke="#F200FF"
   stroke-width="2"
   cx="368.989"
   cy="339.908"
   r="62.809"
   id="circle71" />
<path
   d="m 528.77003,154.442 c 0,-8.524 6.163,-22.77 2.436,-29.775 -3.993,-7.497 -18.732,-10.97 -24.955,-10.97 -6.479,0 -21.092,2.455 -24.957,10.695 -3.322,7.084 3.153,22.899 3.153,31.057"
   id="path73"
   fill="none"
   stroke="#00ff00"
   stroke-width="2"/>
<path
   d="m 484.95803,154.669 c -7.249,2.583 -17.657,6.882 -25.861,16.504"
   id="path75"
   fill="none"
   stroke="#0000ff"
   stroke-width="2" />
<path
   d="m 555.82903,170.071 c -7.702,-7.466 -17.146,-13.145 -27.664,-16.367"
   id="path77"
   fill="none"
   stroke="#0000ff"
   stroke-width="2" />
<path
   d="m 488.62303,163.71 c 0,7.583 -10.387,24.682 -7.066,30.915 3.559,6.667 20.277,8.748 25.813,8.748 5.76,0 21.592,-2.817 25.03,-10.148 2.949,-6.302 -5.604,-22.387 -5.604,-29.644"
   id="path79"
   fill="none"
   stroke="#00ff00"
   stroke-width="2" />
<path
   d="m 549.21703,177.602 c -7.298,-8.56 -16.556,-12.383 -23.003,-14.681"
   id="path81"
   fill="none"
   stroke="#0000ff"
   stroke-width="2" />
<path
   d="m 489.21903,162.983 c -9.354,2.865 -17.759,7.916 -24.604,14.558"
   id="path83"
   fill="none"
   stroke="#0000ff"
   stroke-width="2" />
<path
   d="m 475.95103,171.507 c -3.157,2.012 -6.117,4.307 -8.852,6.85 h 0.063 4.005"
   id="path85"
   fill="none"
   stroke="#000000"
   stroke-width="1" />
<path
   d="m 547.54803,160.9 c 3.023,1.759 3.962,2.7 4.875,3.435 0.968,0.779 2.521,2.076 3.956,3.435 l -0.014,-0.056 -0.994,-3.879"
   id="path87"
   fill="none"
   stroke="#000000"
   stroke-width="1" />
<polyline
   fill="none"
   stroke="#000000"
   points="293.174,84.44 320.08,101.609 318.738,95.536 "
   id="polyline89" />
<polyline
   fill="none"
   stroke="#000000"
   points="292.986,84.733 319.893,101.904 313.821,103.245 "
   id="polyline91" />
<g
   id="g93">
	<polyline
   fill="none"
   stroke="#000000"
   points="572.456,259.5 599.362,276.669 598.021,270.596  "
   id="polyline95" />
	<polyline
   fill="none"
   stroke="#000000"
   points="572.269,259.793 599.175,276.964 593.104,278.305  "
   id="polyline97" />
</g>
<g
   id="g99">
	<polyline
   fill="none"
   stroke="#000000"
   points="775.383,378.717 802.289,395.886 800.948,389.813  "
   id="polyline101" />
	<polyline
   fill="none"
   stroke="#000000"
   points="775.195,379.01 802.102,396.181 796.03,397.521  "
   id="polyline103" />
</g>
<polyline
   fill="none"
   stroke="#000000"
   points="391.364,146.047 418.27,163.216 416.928,157.143 "
   id="polyline105" />
<polyline
   fill="none"
   stroke="#000000"
   points="391.177,146.34 418.082,163.511 412.011,164.852 "
   id="polyline107" />
<g
   id="g109">
	<polyline
   fill="none"
   stroke="#000000"
   points="418.737,273.596 417.396,279.669 444.303,262.5  "
   id="polyline111" />
	<polyline
   fill="none"
   stroke="#000000"
   points="423.655,281.305 417.584,279.964 444.49,262.793  "
   id="polyline113" />
</g>
<g
   id="g115">
	<polyline
   fill="none"
   stroke="#000000"
   points="259.221,380.41 257.88,386.483 284.787,369.314  "
   id="polyline117" />
	<polyline
   fill="none"
   stroke="#000000"
   points="264.139,388.119 258.068,386.778 284.974,369.607  "
   id="polyline119" />
</g>
<g
   id="g121">
	<polygon
   fill-rule="evenodd"
   clip-rule="evenodd"
   fill="#FFCC33"
   points="267.306,265.58 291.828,280.826 282.428,283.636    312.771,295.932 303.407,299.176 341.427,320.813 278.747,306.994 290.212,303.414 251.239,294.467 264.571,289.609    223.428,280.245 267.306,265.58  "
   id="polygon123" />
	<polygon
   fill="#FFCC33"
   stroke="#385D8A"
   stroke-width="2"
   stroke-linejoin="round"
   stroke-miterlimit="10"
   points="   267.306,265.58 291.828,280.826 282.428,283.636 312.771,295.932 303.407,299.176 341.427,320.813 278.747,306.994    290.212,303.414 251.239,294.467 264.571,289.609 223.428,280.245 267.306,265.58  "
   id="polygon125" />
</g>
<text
   transform="matrix(1 0 0 1 288 296)"
   font-family="MyriadPro-Regular"
   font-size="12"
   id="text127">DpnI</text>

<g
   id="g129">
	<polygon
   fill-rule="evenodd"
   clip-rule="evenodd"
   fill="#FFCC33"
   points="513.441,350.3 484.57,350.744 491.183,357.993    458.838,352.911 465.196,360.515 421.463,359.488 482.312,379.912 474.325,370.94 512.344,383.336 503.414,372.308    543.507,385.463 513.441,350.3  "
   id="polygon131" />
	<polygon
   fill="#FFCC33"
   stroke="#385D8A"
   stroke-width="2"
   stroke-linejoin="round"
   stroke-miterlimit="10"
   points="513.441,350.3    484.57,350.744 491.183,357.993 458.838,352.911 465.196,360.515 421.463,359.488 482.312,379.912 474.325,370.94 512.344,383.336    503.414,372.308 543.507,385.463 513.441,350.3  "
   id="polygon133" />
</g>
<text
   transform="matrix(1 0 0 1 498 365)"
   font-family="MyriadPro-Regular"
   font-size="12"
   id="text135">DpnI</text>

<g
   id="g137">
	<polygon
   fill-rule="evenodd"
   clip-rule="evenodd"
   fill="#FFCC33"
   points="849.339,256.431 822.104,268.694 831.34,272.889    798.551,281.313 807.691,285.947 765.74,302.906 831.856,297.401 820.612,292.133 861.772,288.345 848.795,281.505 892.234,277.59    849.339,256.431  "
   id="polygon139" />
	<polygon
   fill="#FFCC33"
   stroke="#385D8A"
   stroke-width="2"
   stroke-linejoin="round"
   stroke-miterlimit="10"
   points="   849.339,256.431 822.104,268.694 831.34,272.889 798.551,281.313 807.691,285.947 765.74,302.906 831.856,297.401 820.612,292.133    861.772,288.345 848.795,281.505 892.234,277.59 849.339,256.431  "
   id="polygon141" />
</g>
<text
   transform="matrix(1 0 0 1 834 281)"
   font-family="MyriadPro-Regular"
   font-size="12"
   id="text143">DpnI</text>

<g
   id="g145">
	<polygon
   fill-rule="evenodd"
   clip-rule="evenodd"
   fill="#FFCC33"
   points="390.71,483.956 391.364,455.089 383.869,461.421    390.178,429.293 382.338,435.357 385.027,391.694 362.304,451.722 371.572,444.083 357.739,481.603 369.1,473.099 354.428,512.662    390.71,483.956  "
   id="polygon147" />
	<polygon
   fill="#FFCC33"
   stroke="#385D8A"
   stroke-width="2"
   stroke-linejoin="round"
   stroke-miterlimit="10"
   points="   390.71,483.956 391.364,455.089 383.869,461.421 390.178,429.293 382.338,435.357 385.027,391.694 362.304,451.722    371.572,444.083 357.739,481.603 369.1,473.099 354.428,512.662 390.71,483.956  "
   id="polygon149" />
</g>
<text
   transform="matrix(1 0 0 1 377 468)"
   font-family="MyriadPro-Regular"
   font-size="12"
   id="text151">DpnI</text>

<g
   id="g153">
	<path
   fill="#FFE9BA"
   stroke="#7F4400"
   d="M864.208,452.906c1.994,4.409,0.037,9.6-4.372,11.595c0,0-23.215,15.127-31.591,18.956   c-8.996,4.114-37.595,12.344-37.595,12.344c-4.409,1.994-9.601,0.037-11.595-4.371l-1.502-3.32   c-1.995-4.409-0.037-9.6,4.372-11.595c0,0,27.334-7.445,35.919-11.312c8.848-3.982,33.267-19.988,33.267-19.988   c4.408-1.994,9.601-0.037,11.594,4.372L864.208,452.906z"
   id="path155" />
	<path
   fill="#FFE9BA"
   stroke="#7F4400"
   d="M827.935,525.209c-0.275,4.831-2.647,8.625-5.295,8.474l-41.548-2.381   c-2.647-0.152-4.57-4.191-4.293-9.022l0.209-3.638c0.275-4.831,2.647-8.624,5.295-8.473l41.548,2.381   c2.647,0.152,4.57,4.19,4.293,9.022L827.935,525.209z"
   id="path157" />
	<path
   fill="#FFE9BA"
   stroke="#7F4400"
   d="M879.626,596.781c-0.563,4.066-4.546,6.874-8.896,6.271l-68.227-9.47   c-4.348-0.604-7.416-4.389-6.851-8.455l0.426-3.063c0.563-4.066,4.546-6.874,8.895-6.27l68.227,9.47   c4.348,0.604,7.416,4.388,6.85,8.455L879.626,596.781z"
   id="path159" />
	<path
   fill="#FFE9BA"
   stroke="#7F4400"
   d="M926.439,520.79c3.409,3.435,3.885,8.491,1.06,11.293c0,0-26.504,22.534-34.813,30.779   c-2.767,2.745-9.489,13.181-9.489,13.181c-2.822,2.801-7.874,2.289-11.282-1.146l-2.566-2.588c-3.41-3.434-3.884-8.49-1.06-11.291   c0,0,7.053-10.763,9.928-13.617c8.199-8.136,34.374-30.344,34.374-30.344c2.823-2.801,7.874-2.288,11.283,1.148L926.439,520.79z"
   id="path161" />
	<path
   fill="#FFE9BA"
   stroke="#7F4400"
   d="M765.393,591.341c-4.3-2.218-6.309-6.883-4.483-10.419l28.619-55.462   c1.823-3.533,6.788-4.603,11.088-2.382l3.238,1.671c4.302,2.218,6.308,6.883,4.483,10.417l-28.619,55.464   c-1.824,3.535-6.787,4.602-11.088,2.381L765.393,591.341z"
   id="path163" />
	<path
   fill="#FFE9BA"
   stroke="#7F4400"
   d="M879.056,534.356c-0.734,4.783-3.455,8.334-6.077,7.932l-41.134-6.318   c-2.62-0.404-4.15-4.607-3.415-9.39l0.553-3.602c0.734-4.783,3.455-8.334,6.076-7.932l41.134,6.319   c2.621,0.402,4.151,4.606,3.416,9.39L879.056,534.356z"
   id="path165" />
</g>
<g
   id="g167">
	<path
   fill="none"
   stroke="#00FF00"
   d="M809.252,481.784c-2.36-0.506-4.611-1.662-6.464-3.475c-1.91-1.867-3.156-4.301-3.691-6.728"
   id="path169" />
	<path
   fill="none"
   stroke="#00FF00"
   d="M809.35,481.179c-2.234-0.485-4.362-1.584-6.117-3.301c-1.854-1.813-3.029-4.058-3.521-6.419   "
   id="path171" />
	<path
   fill="none"
   stroke="#0000FF"
   d="M799.092,471.582c-0.151-0.728-0.241-1.465-0.269-2.205 M798.814,469.015   c-0.035-3.375,1.217-6.765,3.763-9.368c5.099-5.214,13.458-5.307,18.672-0.208s5.307,13.458,0.208,18.672   c-3.286,3.359-7.928,4.593-12.207,3.68"
   id="path173" />
	<path
   fill="none"
   stroke="#0000FF"
   d="M799.71,471.459c-0.828-3.966,0.272-8.258,3.317-11.372   c4.855-4.965,12.816-5.054,17.781-0.198s5.053,12.815,0.197,17.78c-2.218,2.268-5.082,3.519-8.016,3.745 M812.515,481.442   c-1.043,0.041-2.14-0.046-3.165-0.264"
   id="path175" />
</g>
<g
   id="g177">
	<path
   fill="none"
   stroke="#00FF00"
   d="M831.639,430.271c0.209-2.405,1.078-4.781,2.646-6.845c1.616-2.127,3.876-3.666,6.218-4.498"
   id="path179" />
	<path
   fill="none"
   stroke="#00FF00"
   d="M832.252,430.293c0.204-2.276,1.031-4.525,2.517-6.479c1.568-2.064,3.65-3.509,5.932-4.29"
   id="path181" />
	<path
   fill="none"
   stroke="#0000FF"
   d="M840.501,418.925c0.703-0.241,1.425-0.422,2.155-0.541 M843.015,418.33   c3.345-0.453,6.863,0.368,9.763,2.571c5.807,4.413,6.936,12.695,2.523,18.502c-4.412,5.806-12.695,6.936-18.502,2.522   c-3.741-2.843-5.541-7.295-5.166-11.655"
   id="path183" />
	<path
   fill="none"
   stroke="#0000FF"
   d="M840.7,419.521c3.833-1.313,8.229-0.754,11.695,1.882c5.529,4.201,6.605,12.09,2.404,17.618   c-4.202,5.529-12.09,6.604-17.619,2.402c-2.525-1.919-4.122-4.605-4.71-7.488 M832.383,433.467c-0.17-1.029-0.22-2.129-0.131-3.174   "
   id="path185" />
</g>
<g
   id="g187">
	<path
   fill="none"
   stroke="#00FF00"
   d="M847.7,472.778c1.646-1.767,3.793-3.104,6.299-3.766c2.583-0.683,5.312-0.505,7.669,0.28"
   id="path189" />
	<path
   fill="none"
   stroke="#00FF00"
   d="M848.171,473.173c1.562-1.669,3.598-2.933,5.971-3.559c2.507-0.662,5.037-0.519,7.315,0.27"
   id="path191" />
	<path
   fill="none"
   stroke="#0000FF"
   d="M861.669,469.289c0.702,0.243,1.383,0.544,2.031,0.9 M864.017,470.367   c2.915,1.701,5.183,4.515,6.112,8.035c1.86,7.052-2.347,14.274-9.397,16.136s-14.275-2.346-16.136-9.398   c-1.199-4.543,0.122-9.159,3.101-12.365"
   id="path193" />
	<path
   fill="none"
   stroke="#0000FF"
   d="M861.459,469.882c3.829,1.324,6.949,4.47,8.06,8.681c1.772,6.715-2.233,13.595-8.947,15.366   c-6.715,1.772-13.594-2.234-15.366-8.949c-0.81-3.066-0.414-6.167,0.896-8.801 M846.32,475.755c0.5-0.916,1.138-1.813,1.851-2.582"
   id="path195" />
</g>
<g
   id="g197">
	<path
   fill="none"
   stroke="#00FF00"
   d="M838.509,537.545c1.646-1.767,3.793-3.104,6.299-3.766c2.583-0.683,5.312-0.505,7.669,0.28"
   id="path199" />
	<path
   fill="none"
   stroke="#00FF00"
   d="M838.979,537.939c1.562-1.669,3.598-2.933,5.971-3.559c2.507-0.662,5.037-0.519,7.315,0.27"
   id="path201" />
	<path
   fill="none"
   stroke="#0000FF"
   d="M852.478,534.056c0.702,0.243,1.383,0.544,2.031,0.9 M854.825,535.134   c2.915,1.701,5.183,4.515,6.112,8.035c1.86,7.052-2.347,14.274-9.397,16.136s-14.275-2.346-16.136-9.398   c-1.199-4.543,0.122-9.159,3.101-12.365"
   id="path203" />
	<path
   fill="none"
   stroke="#0000FF"
   d="M852.268,534.648c3.829,1.324,6.949,4.47,8.06,8.681c1.772,6.715-2.233,13.595-8.947,15.366   c-6.715,1.772-13.594-2.234-15.366-8.949c-0.81-3.066-0.414-6.167,0.896-8.801 M837.129,540.521c0.5-0.916,1.138-1.813,1.851-2.582   "
   id="path205" />
</g>
<g
   id="g207">
	<path
   fill="none"
   stroke="#00FF00"
   d="M878.493,480.564c2.041-1.289,4.459-2.035,7.051-2.035c2.671,0,5.264,0.868,7.343,2.229"
   id="path209" />
	<path
   fill="none"
   stroke="#00FF00"
   d="M878.847,481.065c1.937-1.215,4.227-1.917,6.682-1.917c2.593,0,5.002,0.783,7.005,2.127"
   id="path211" />
	<path
   fill="none"
   stroke="#0000FF"
   d="M892.89,480.755c0.617,0.414,1.197,0.879,1.734,1.389 M894.884,482.396   c2.385,2.389,3.859,5.687,3.859,9.328c0,7.293-5.911,13.204-13.204,13.204c-7.292,0-13.203-5.911-13.203-13.204   c0-4.699,2.456-8.826,6.154-11.166"
   id="path213" />
	<path
   fill="none"
   stroke="#0000FF"
   d="M892.534,481.274c3.365,2.257,5.579,6.095,5.579,10.45c0,6.944-5.629,12.574-12.573,12.574   s-12.573-5.63-12.573-12.574c0-3.172,1.173-6.068,3.112-8.281 M876.399,483.09c0.717-0.758,1.562-1.463,2.447-2.024"
   id="path215" />
</g>
<g
   id="g217">
	<path
   fill="none"
   stroke="#00FF00"
   d="M904.854,446.378c1.062,2.168,1.542,4.652,1.263,7.229c-0.288,2.655-1.432,5.14-3.009,7.06"
   id="path219" />
	<path
   fill="none"
   stroke="#00FF00"
   d="M904.317,446.675c0.999,2.057,1.449,4.409,1.185,6.85c-0.279,2.578-1.318,4.889-2.87,6.734"
   id="path221" />
	<path
   fill="none"
   stroke="#0000FF"
   d="M903.11,460.67c-0.478,0.568-1.003,1.095-1.567,1.574 M901.264,462.475   c-2.633,2.113-6.07,3.224-9.69,2.831c-7.25-0.787-12.489-7.302-11.702-14.552s7.301-12.488,14.552-11.702   c4.672,0.508,8.51,3.395,10.437,7.323"
   id="path223" />
	<path
   fill="none"
   stroke="#0000FF"
   d="M902.633,460.26c-2.607,3.103-6.661,4.89-10.991,4.419   c-6.904-0.749-11.894-6.952-11.145-13.856c0.749-6.903,6.954-11.893,13.857-11.143c3.153,0.342,5.906,1.82,7.897,3.987    M902.568,444.023c0.677,0.795,1.286,1.711,1.749,2.651"
   id="path225" />
</g>
<g
   id="g227">
	<line
   fill="#FF0000"
   stroke="#FF0000"
   stroke-width="2"
   x1="790.481"
   y1="267.287"
   x2="879.446"
   y2="319.105"
   id="line229" />
	<line
   fill="#FF0000"
   stroke="#FF0000"
   stroke-width="2"
   x1="879.446"
   y1="267.287"
   x2="790.481"
   y2="319.105"
   id="line231" />
</g>
<text
   transform="matrix(1 0 0 1 820 67.4033)"
   font-family="MyriadPro-Regular"
   font-size="12"
   id="text233">Synthesized destination</text>

<text
   transform="matrix(1 0 0 1 777 93.2227)"
   font-family="MyriadPro-Regular"
   font-size="12"
   id="text235">Insert</text>

<text
   transform="matrix(1 0 0 1 784 119.0425)"
   font-family="MyriadPro-Regular"
   font-size="12"
   id="text237">Parental</text>

</svg>